**ABCDEFGHIJKLMNOPQRSTUVWXYZabcdefghijklmnopqrstuvwxyz**************************
**PARASOLID !"#$%&'()*+,-./:;<=>?@[\]^_`{|}~0123456789**************************
**PART1;
MC=x64/Windows NT;
MC_MODEL=genuineintel family 6 model 14 stepping 9, intel(r) core(tm) i7-7700 cpu @ 3.60ghz;
MC_ID=lemon;
OS=windows nt (x64);
OS_RELEASE=6.3 windows 10 pro (build 17134) ;
FRU=mdc_ugii_v7.0_djl_can_vrh;
APPL=unigraphics;
SITE=unknown;
USER=nathd;
FORMAT=text;
GUISE=transmit;
KEY=pisces_v3;
FILE=C:\Users\nathd\AppData\Roaming\Microsoft\Windows\Network Shortcuts\pisces_v3.x_t;
DATE=19-dec-2019;
**PART2;
SCH=SCH_3000280_30000;
USFLD_SIZE=0;
**PART3;
**END_OF_HEADER*****************************************************************
T51 : TRANSMIT FILE created by modeller version 300028023 SCH_3000280_30000_1300
6205 0 12 33 CCCCCCI4 mesh1006 0 I8 polyline1008 0 CCCCCCCDI5 owner1040 0 CCCCCC
I13 boundary_mesh1006 0 I17 boundary_polyline1008 0 CCCA16 index_map_offset0 0 1
 dA9 index_map82 0 A17 node_id_index_map82 0 A20 schema_embedding_map82 0 A5 chi
ld12 0 A14 lowest_node_id0 0 1 dZ1 722 2 3 0 0 0 0 0 0 1e3 1e-8 0 0 0 1 0 1 1 4
 5 6 7 0 0 8 9 10 0 0 0 0 0 0 81 255 1 2 722 11 1 12 0 0 0 13 70 11 CI9 list_typ
e0 0 1 uI10 notransmit0 0 1 lCCCDCCDI12 finger_index0 0 1 dI12 finger_block1012
 0 CZ3 0 4 T1 0 0 5 20 1 14 14 13 255 4 30 0 1 0 15 0 0 16 0 51 255 5 592 0 1 17
 0 18 -.0446 0 .02275 0 0 -1 .005 -1 0 0 137 255 6 591 0 9 19 0 0 +5 20 0 ?29 25
5 7 586 0 10 21 0 .0486628019529398 .00291438506227108 .0227484594392033 19 8 CC
CCCCCA5 owner12 0 Z8 1 0 1 16 0 22 V0 16 255 9 589 23 ?24 0 25 6 0 0 1 18 255 10
 584 0 26 0 27 7 ?1 17 255 26 0 28 29 29 10 24 9 0 30 -18 27 581 0 24 10 31 21 ?
1 17 24 0 32 30 30 27 26 9 0 29 +18 31 570 0 33 27 34 35 ?1 29 21 583 0 27 35 7
 .0486628089812829 -.00291437526437603 .02274846179446965 29 35 572 0 31 36 21 .
0486628019529398 .00291438506227108 .0327484594392033 29 36 569 0 34 37 35 .0486
628089812829 -.00291437526437603 .03274846179446965 18 34 567 0 38 31 39 36 ?1 2
9 37 558 0 39 40 36 .0486628019529398 .00291438506227108 .0427484594392033 18 39
 556 0 41 34 42 37 ?1 29 40 555 0 42 43 37 .0486628089812829 -.00291437526437603
 .04274846179446965 18 42 553 0 44 39 45 40 ?1 29 43 544 0 45 46 40 .04866280195
29398 .00291438506227108 .0527484594392033 18 45 542 0 47 42 48 43 ?1 29 46 541
 0 48 49 43 .0486628089812829 -.00291437526437603 .0527484617944697 18 48 539 0
 50 45 51 46 ?1 29 49 530 0 51 52 46 .0486628019529398 .00291438506227108 .06274
84594392033 18 51 528 0 53 48 54 49 ?1 29 52 527 0 54 55 49 .0486628089812829 -.
00291437526437603 .0627484617944697 18 54 525 0 56 51 57 52 ?1 29 55 516 0 57 58
 52 .0486628019529398 .00291438506227108 .0727484594392033 18 57 514 0 59 54 60
 55 ?1 29 58 513 0 60 61 55 .0486628089812829 -.00291437526437603 .0727484617944
697 18 60 511 0 62 57 63 58 ?1 29 61 502 0 63 64 58 .0486628019529398 .002914385
06227108 .0827484594392033 18 63 500 0 65 60 66 61 ?1 29 64 499 0 66 67 61 .0486
628089812829 -.00291437526437603 .0827484617944697 18 66 497 0 68 63 69 64 ?1 29
 67 488 0 69 70 64 .0486628019529398 .00291438506227108 .0927484594392033 18 69
 486 0 71 66 72 67 ?1 29 70 485 0 72 73 67 .0486628089812829 -.00291437526437603
 .0927484617944697 18 72 483 0 74 69 75 70 ?1 29 73 474 0 75 76 70 .048662801952
9398 .00291438506227108 .1027484594392032 18 75 472 0 77 72 78 73 ?1 29 76 471 0
 78 79 73 .0486628089812829 -.00291437526437603 .1027484617944696 18 78 469 0 80
 75 81 76 ?1 29 79 460 0 81 82 76 .0486628019529398 .00291438506227108 .11274845
94392032 18 81 458 0 83 78 84 79 ?1 29 82 457 0 84 85 79 .0486628089812829 -.002
91437526437603 .1127484617944696 18 84 455 0 86 81 87 82 ?1 29 85 446 0 87 88 82
 .0486628019529398 .00291438506227108 .1227484594392032 18 87 444 0 89 84 90 85
 ?1 29 88 443 0 90 91 85 .0486628089812829 -.00291437526437603 .1227484617944696
 18 90 441 0 92 87 93 88 ?1 29 91 432 0 93 94 88 .0486628019529398 .002914385062
27108 .1327484594392032 18 93 430 0 95 90 96 91 ?1 29 94 429 0 96 97 91 .0486628
089812829 -.00291437526437603 .1327484617944696 18 96 427 0 98 93 99 94 ?1 29 97
 261 0 99 100 94 .0486628019529398 .00291438506227108 .0127484594392033 18 99 25
9 0 101 96 102 97 ?1 29 100 258 0 102 103 97 .0486628089812829 -.002914375264376
03 .01274846179446966 18 102 256 0 104 99 105 100 ?1 29 103 197 0 105 106 100 .0
486628082959641 .00291437621975008 0 18 105 131 0 107 102 108 103 ?1 29 106 198
 0 108 0 103 .0486628082959642 -.0029143762197501 0 18 108 132 0 109 105 0 106 ?
1 17 109 0 110 111 111 108 112 113 0 114 -15 255 110 136 0 109 115 116 17 111 0
 110 109 109 105 114 117 0 118 -17 112 0 119 120 120 105 109 113 0 111 +16 113 1
17 121 ?112 122 117 123 0 0 1 17 114 0 124 118 118 108 111 117 0 125 +15 124 149
 0 118 126 0 17 118 0 124 114 114 105 125 127 0 0 -16 117 119 128 ?114 113 129 1
30 0 0 1 17 125 0 131 107 107 108 118 127 0 120 +15 131 184 0 107 132 133 17 107
 0 131 125 125 105 120 134 0 112 +16 127 129 135 ?125 134 0 136 0 0 1 17 120 0 1
19 112 112 108 107 134 0 0 -15 119 141 0 120 137 0 16 134 125 138 ?107 139 127 1
40 0 0 1 81 1 138 216 141 134 0 0 128 135 142 16 139 123 143 ?144 129 134 145 0
 0 1 31 255 140 195 0 134 145 123 0 -.0446 0 0 0 0 1 1 0 0 .005 31 145 196 0 139
 0 140 0 +.0446 0 .14275 0 0 1 1 0 0 .005 31 123 194 0 113 140 146 0 -0 0 0 0 0
 1 1 0 0 .04875 31 146 193 0 129 123 147 0 +0 0 -.05 0 0 1 1 0 0 .04875 16 129 1
13 148 ?149 117 139 146 0 0 1 31 147 4 0 150 146 151 0 +0 0 .45 0 0 1 1 0 0 .1 1
6 150 2 152 ?153 154 122 147 0 0 1 31 151 24 0 122 147 136 0 +0 0 -.05 0 0 1 1 0
 0 .1 16 122 21 155 ?156 150 113 151 0 0 1 31 136 208 0 127 151 130 0 -.0446 0 0
 0 0 1 1 0 0 .005 31 130 209 0 117 136 157 0 -0 0 0 0 0 1 1 0 0 .04875 137 157 2
62 0 154 130 158 0 +159 160 0 ?16 154 260 161 ?162 163 150 157 0 0 1 137 158 266
 0 163 157 164 0 +165 166 0 ?51 159 263 0 1 167 165 168 -.0446 0 .02275 0 0 -1 .
005 -1 0 0 134 255 160 0 0 0 0 0 0 +169 170 136 255 169 3 5 2 3 4 FFF1 171 172 1
73 135 255 170 2 0 45 255 10 171 3.76385513024673 .01000153820553032 3.556552170
57036 .01000556954871526 3.14159706157788 .0099965195083747 2.72678907980705 .01
0007631610239 2.51932776532464 .0100015405607967 127 255 3 172 4 1 4 128 255 3 1
73 0 .5 1 51 167 29 0 174 175 159 0 -0 0 .45 0 0 -1 .1 -1 0 0 51 165 267 0 1 159
 176 177 -.0446 0 .02275 0 0 -1 .005 -1 0 0 141 255 168 157 168 168 159 51 176 4
34 0 1 165 178 179 -.0446 0 .02275 0 0 -1 .005 -1 0 0 141 177 158 177 177 165 51
 178 438 0 1 176 180 181 -.0446 0 .02275 0 0 -1 .005 -1 0 0 141 179 164 179 179
 176 137 164 433 0 182 158 183 0 +176 184 0 ?16 182 431 185 ?186 187 163 164 0 0
 1 137 183 437 0 187 164 188 0 +178 189 0 ?134 184 0 0 0 0 0 0 +190 191 136 190
 3 5 2 3 4 FFF1 192 193 194 135 191 2 0 45 10 192 3.76385513024673 -.10999846179
44696 3.55655217057036 -.1099944304512846 3.14159706157788 -.1100034804916252 2.
72678907980705 -.109992368389761 2.51932776532464 -.1099984594392032 127 3 193 4
 1 4 128 3 194 0 .5 1 16 187 435 195 ?98 196 182 183 0 0 1 137 188 447 0 196 183
 197 0 +180 198 0 ?134 189 0 0 0 0 0 0 +199 200 136 199 3 7 2 5 4 FFF1 201 202 2
03 135 200 2 0 45 14 201 2.51932776532464 -.1099984594392032 2.09974206158517 -.
1100107784456318 1.259848728390274 -.1099947574262522 .00100573446073124 -.11000
21813396696 -1.259932771682142 -.1099965172150694 -2.097124436230715 -.110006672
2717252 -2.51933017693286 -.1099984617944696 127 5 202 4 1 1 1 4 128 5 203 0 .25
 .5 .75 1 16 196 445 204 ?205 206 187 188 0 0 1 137 197 451 0 206 188 207 0 +208
 209 0 ?51 180 448 0 1 178 208 210 -.0446 0 .02275 0 0 -1 .005 -1 0 0 134 198 0
 0 0 0 0 0 +211 212 136 211 3 5 2 3 4 FFF1 213 214 215 135 212 2 0 45 10 213 3.7
6385513024673 -.0999984617944697 3.55655217057036 -.0999944304512847 3.141597061
57788 -.1000034804916252 2.72678907980705 -.099992368389761 2.51932776532464 -.0
999984594392033 127 3 214 4 1 4 128 3 215 0 .5 1 51 208 452 0 1 180 216 217 -.04
46 0 .02275 0 0 -1 .005 -1 0 0 141 210 188 210 210 180 51 216 462 0 1 208 218 21
9 -.0446 0 .02275 0 0 -1 .005 -1 0 0 141 217 197 217 217 208 51 218 466 0 1 216
 220 221 -.0446 0 .02275 0 0 -1 .005 -1 0 0 141 219 207 219 219 216 137 207 461
 0 222 197 223 0 +216 224 0 ?16 222 459 225 ?226 227 206 207 0 0 1 137 223 465 0
 227 207 228 0 +218 229 0 ?134 224 0 0 0 0 0 0 +230 231 136 230 3 5 2 3 4 FFF1 2
32 233 234 135 231 2 0 45 10 232 3.76385513024673 -.0899984617944697 3.556552170
57036 -.0899944304512847 3.14159706157788 -.0900034804916253 2.72678907980705 -.
089992368389761 2.51932776532464 -.0899984594392033 127 3 233 4 1 4 128 3 234 0
 .5 1 16 227 463 235 ?86 236 222 223 0 0 1 137 228 475 0 236 223 237 0 +220 238
 0 ?134 229 0 0 0 0 0 0 +239 240 136 239 3 7 2 5 4 FFF1 241 242 243 135 240 2 0
 45 14 241 2.51932776532464 -.0899984594392033 2.09974206158517 -.09001077844563
17 1.259848728390274 -.0899947574262522 .00100573446073124 -.0900021813396696 -1
.259932771682142 -.0899965172150694 -2.097124436230715 -.0900066722717252 -2.519
33017693286 -.0899984617944697 127 5 242 4 1 1 1 4 128 5 243 0 .25 .5 .75 1 16 2
36 473 244 ?245 246 227 228 0 0 1 137 237 479 0 246 228 247 0 +248 249 0 ?51 220
 476 0 1 218 248 250 -.0446 0 .02275 0 0 -1 .005 -1 0 0 134 238 0 0 0 0 0 0 +251
 252 136 251 3 5 2 3 4 FFF1 253 254 255 135 252 2 0 45 10 253 3.76385513024673 -
.0799984617944697 3.55655217057036 -.0799944304512847 3.14159706157788 -.0800034
804916253 2.72678907980705 -.079992368389761 2.51932776532464 -.0799984594392033
 127 3 254 4 1 4 128 3 255 0 .5 1 51 248 480 0 1 220 256 257 -.0446 0 .02275 0 0
 -1 .005 -1 0 0 141 250 228 250 250 220 51 256 490 0 1 248 258 259 -.0446 0 .022
75 0 0 -1 .005 -1 0 0 141 257 237 257 257 248 51 258 494 0 1 256 260 261 -.0446
 0 .02275 0 0 -1 .005 -1 0 0 141 259 247 259 259 256 137 247 489 0 262 237 263 0
 +256 264 0 ?16 262 487 265 ?266 267 246 247 0 0 1 137 263 493 0 267 247 268 0 +
258 269 0 ?134 264 0 0 0 0 0 0 +270 271 136 270 3 5 2 3 4 FFF1 272 273 274 135 2
71 2 0 45 10 272 3.76385513024673 -.0699984617944697 3.55655217057036 -.06999443
04512847 3.14159706157788 -.0700034804916253 2.72678907980705 -.069992368389761
 2.51932776532464 -.0699984594392033 127 3 273 4 1 4 128 3 274 0 .5 1 16 267 491
 275 ?74 276 262 263 0 0 1 137 268 503 0 276 263 277 0 +260 278 0 ?134 269 0 0 0
 0 0 0 +279 280 136 279 3 7 2 5 4 FFF1 281 282 283 135 280 2 0 45 14 281 2.51932
776532464 -.0699984594392033 2.09974206158517 -.0700107784456318 1.2598487283902
74 -.0699947574262523 .00100573446073124 -.0700021813396696 -1.259932771682142 -
.0699965172150694 -2.097124436230715 -.0700066722717252 -2.51933017693286 -.0699
984617944697 127 5 282 4 1 1 1 4 128 5 283 0 .25 .5 .75 1 16 276 501 284 ?285 28
6 267 268 0 0 1 137 277 507 0 286 268 287 0 +288 289 0 ?51 260 504 0 1 258 288 2
90 -.0446 0 .02275 0 0 -1 .005 -1 0 0 134 278 0 0 0 0 0 0 +291 292 136 291 3 5 2
 3 4 FFF1 293 294 295 135 292 2 0 45 10 293 3.76385513024673 -.0599984617944697
 3.55655217057036 -.0599944304512847 3.14159706157788 -.0600034804916252 2.72678
907980705 -.059992368389761 2.51932776532464 -.0599984594392033 127 3 294 4 1 4
 128 3 295 0 .5 1 51 288 508 0 1 260 296 297 -.0446 0 .02275 0 0 -1 .005 -1 0 0
 141 290 268 290 290 260 51 296 518 0 1 288 298 299 -.0446 0 .02275 0 0 -1 .005
 -1 0 0 141 297 277 297 297 288 51 298 522 0 1 296 300 301 -.0446 0 .02275 0 0 -
1 .005 -1 0 0 141 299 287 299 299 296 137 287 517 0 302 277 303 0 +296 304 0 ?16
 302 515 305 ?306 307 286 287 0 0 1 137 303 521 0 307 287 308 0 +298 309 0 ?134
 304 0 0 0 0 0 0 +310 311 136 310 3 5 2 3 4 FFF1 312 313 314 135 311 2 0 45 10 3
12 3.76385513024673 -.0499984617944697 3.55655217057036 -.0499944304512847 3.141
59706157788 -.0500034804916253 2.72678907980705 -.049992368389761 2.519327765324
64 -.0499984594392033 127 3 313 4 1 4 128 3 314 0 .5 1 16 307 519 315 ?62 316 30
2 303 0 0 1 137 308 531 0 316 303 317 0 +300 318 0 ?134 309 0 0 0 0 0 0 +319 320
 136 319 3 7 2 5 4 FFF1 321 322 323 135 320 2 0 45 14 321 2.51932776532464 -.049
9984594392033 2.09974206158517 -.0500107784456318 1.259848728390276 -.0499947574
262522 .00100573446073756 -.0500021813396696 -1.25993277168213 -.049996517215069
3 -2.097124436230705 -.0500066722717252 -2.51933017693286 -.0499984617944697 127
 5 322 4 1 1 1 4 128 5 323 0 .25 .5 .75 1 16 316 529 324 ?325 326 307 308 0 0 1
 137 317 535 0 326 308 327 0 +328 329 0 ?51 300 532 0 1 298 328 330 -.0446 0 .02
275 0 0 -1 .005 -1 0 0 134 318 0 0 0 0 0 0 +331 332 136 331 3 5 2 3 4 FFF1 333 3
34 335 135 332 2 0 45 10 333 3.76385513024673 -.0399984617944697 3.5565521705703
6 -.03999443045128475 3.14159706157788 -.0400034804916253 2.72678907980705 -.039
992368389761 2.51932776532464 -.0399984594392033 127 3 334 4 1 4 128 3 335 0 .5
 1 51 328 536 0 1 300 336 337 -.0446 0 .02275 0 0 -1 .005 -1 0 0 141 330 308 330
 330 300 51 336 546 0 1 328 338 339 -.0446 0 .02275 0 0 -1 .005 -1 0 0 141 337 3
17 337 337 328 51 338 550 0 1 336 340 341 -.0446 0 .02275 0 0 -1 .005 -1 0 0 141
 339 327 339 339 336 137 327 545 0 342 317 343 0 +336 344 0 ?16 342 543 345 ?346
 347 326 327 0 0 1 137 343 549 0 347 327 348 0 +338 349 0 ?134 344 0 0 0 0 0 0 +
350 351 136 350 3 5 2 3 4 FFF1 352 353 354 135 351 2 0 45 10 352 3.7638551302467
3 -.02999846179446965 3.55655217057036 -.02999443045128475 3.14159706157788 -.03
00034804916253 2.72678907980705 -.029992368389761 2.51932776532464 -.02999845943
92033 127 3 353 4 1 4 128 3 354 0 .5 1 16 347 547 355 ?50 356 342 343 0 0 1 137
 348 559 0 356 343 357 0 +340 358 0 ?134 349 0 0 0 0 0 0 +359 360 136 359 3 7 2
 5 4 FFF1 361 362 363 135 360 2 0 45 14 361 2.51932776532464 -.0299984594392033
 2.09974206158517 -.03001077844563175 1.259848728390274 -.02999475742625225 .001
005734460732046 -.0300021813396696 -1.259932771682134 -.02999651721506935 -2.097
12443623071 -.0300066722717252 -2.51933017693286 -.02999846179446965 127 5 362 4
 1 1 1 4 128 5 363 0 .25 .5 .75 1 16 356 557 364 ?365 366 347 348 0 0 1 137 357
 563 0 366 348 367 0 +368 369 0 ?51 340 560 0 1 338 368 370 -.0446 0 .02275 0 0
 -1 .005 -1 0 0 134 358 0 0 0 0 0 0 +371 372 136 371 3 5 2 3 4 FFF1 373 374 375
 135 372 2 0 45 10 373 3.76385513024673 -.01999846179446965 3.55655217057036 -.0
1999443045128475 3.14159706157788 -.0200034804916253 2.72678907980705 -.01999236
8389761 2.51932776532464 -.0199984594392033 127 3 374 4 1 4 128 3 375 0 .5 1 51
 368 564 0 1 340 376 377 -.0446 0 .02275 0 0 -1 .005 -1 0 0 141 370 348 370 370
 340 51 376 574 0 1 368 378 379 -.0446 0 .02275 0 0 -1 .005 -1 0 0 141 377 357 3
77 377 368 51 378 578 0 1 376 17 380 -.0446 0 .02275 0 0 -1 .005 -1 0 0 141 379
 367 379 379 376 137 367 573 0 381 357 382 0 +376 383 0 ?16 381 571 384 ?385 386
 366 367 0 0 1 137 382 577 0 386 367 19 0 +378 387 0 ?134 383 0 0 0 0 0 0 +388 3
89 136 388 3 5 2 3 4 FFF1 390 391 392 135 389 2 0 45 10 390 3.76385513024673 -.0
0999846179446967 3.55655217057036 -.00999443045128472 3.14159706157788 -.0100034
804916253 2.72678907980705 -.00999236838976098 2.51932776532464 -.00999845943920
329 127 3 391 4 1 4 128 3 392 0 .5 1 16 386 575 393 ?38 25 381 382 0 0 1 137 19
 587 0 25 382 6 0 +17 394 0 ?134 387 0 0 0 0 0 0 +395 396 136 395 3 7 2 5 4 FFF1
 397 398 399 135 396 2 0 45 14 397 2.51932776532464 -.00999845943920329 2.099742
06158517 -.01001077844563176 1.259848728390276 -.00999475742625222 .001005734460
733794 -.0100021813396696 -1.259932771682136 -.00999651721506931 -2.097124436230
71 -.0100066722717252 -2.51933017693286 -.00999846179446967 127 5 398 4 1 1 1 4
 128 5 399 0 .25 .5 .75 1 16 25 585 400 ?30 9 386 19 0 0 1 51 17 588 0 1 378 5 4
01 -.0446 0 .02275 0 0 -1 .005 -1 0 0 134 394 0 0 0 0 0 0 +402 403 136 402 3 5 2
 3 4 FFF1 404 405 406 135 403 2 0 45 10 404 3.76385513024673 1538205530331185e-2
1 3.55655217057036 556954871527154e-20 3.14159706157788 -3480491625297915e-21 2.
72678907980705 763161023901657e-20 2.51932776532464 1540560796702005e-21 127 3 4
05 4 1 4 128 3 406 0 .5 1 141 401 19 401 401 17 81 1 400 641 141 25 0 0 315 407
 408 17 30 0 32 24 24 10 29 25 0 0 +15 32 582 0 30 15 0 17 29 0 28 26 26 27 30 2
5 0 0 -15 28 590 0 26 409 410 14 255 409 579 411 ?412 15 28 4 413 +412 15 412 15
 22 15 410 568 0 385 409 0 17 385 0 410 38 38 31 414 381 0 0 +17 38 0 410 385 38
5 34 33 386 0 414 +17 414 0 415 33 33 34 385 381 0 0 -15 415 576 0 33 412 416 17
 33 0 415 414 414 31 38 386 0 385 -14 412 565 417 ?418 409 415 4 413 +418 409 41
8 409 22 15 416 554 0 365 412 0 17 365 0 416 44 44 39 419 356 0 0 +17 44 0 416 3
65 365 42 41 366 0 419 +17 419 0 420 41 41 42 365 356 0 0 -15 420 562 0 41 418 4
21 17 41 0 420 419 419 39 44 366 0 365 -16 366 561 422 ?44 381 356 357 0 0 1 81
 1 422 638 141 366 0 0 345 235 423 80 255 1 141 424 425 9000 1 1 1 1 1 1 1 1 0 F
FFFTFTFFFFFFF3 81 1 345 637 141 342 0 0 426 422 427 81 1 235 639 141 227 0 0 422
 315 428 84 255 32 423 93f6fda911d2f3151dd4e8b2db11647d81 1 315 640 141 307 0 0
 235 400 429 84 32 428 f115c5a6deb78a36dce35b12dbd97a6784 32 429 562b96ceb9dbcf7
4481fa1f5e2a7bca781 1 426 294 141 126 0 430 161 345 431 84 32 427 9614fd0be6b0e4
347957f8bd47504bfa14 126 146 430 ?432 137 124 4 433 +0 0 432 137 22 81 1 430 719
 434 126 426 0 435 436 437 81 1 161 293 141 154 0 0 438 426 439 84 32 431 d06262
f7140f529958b2b5470fdf688981 1 438 292 141 163 0 0 440 161 441 84 32 439 ed39d4f
222e80e620d44ad04a260599516 163 264 438 ?104 182 154 158 0 0 1 81 1 440 222 141
 442 0 443 444 438 445 84 32 441 ae645f70240ecfb355b6792ad72d3fb414 442 17 443 ?
115 446 447 4 175 -0 0 115 446 22 81 1 443 716 434 442 440 0 448 449 450 81 1 44
4 221 141 432 0 436 451 440 452 84 32 445 fee1958bb4083c8f954d90adb4568ab614 432
 150 436 ?453 126 454 4 455 -0 0 453 126 22 81 1 436 720 434 432 444 0 430 456 4
57 81 1 451 219 141 115 0 449 458 444 459 84 32 452 6a5dc553029d4b22c4dc7def6f94
6cf714 115 133 449 ?137 442 110 4 460 +0 0 137 442 22 81 1 449 717 434 115 451 0
 443 435 461 81 1 458 218 141 137 0 435 135 451 462 84 32 459 34bb454a32962d60ca
1eb8a2a0dc441c14 137 138 435 ?126 115 119 4 463 -0 0 126 115 22 81 1 435 718 434
 137 458 0 449 430 464 81 1 135 217 141 127 0 0 138 458 465 84 32 462 01d5ae4957
b766ebcb1571ba6229ab6a84 32 465 6f18fc06cf1fc0b03c470e0152cbbb3180 1 434 0 466 8
001 0 0 0 0 3 5 0 0 0 FFFFTFTFFFFFFF2 83 255 3 464 .596063172350652 .66666666666
6667 .686259250782025 79 255 15 466 SDL/TYSA_COLOUR50 255 463 189 0 137 413 460
 0 +0 0 0 0 0 1 1 0 0 13 22 3 0 0 0 0 0 0 8 15 14 15 593 467 ?409 0 468 4 413 +4
09 453 409 0 22 81 1 467 701 434 15 469 0 0 411 470 15 468 265 0 101 15 32 51 41
3 190 0 453 433 463 0 -.0446 0 .02275 0 0 -1 .005 -1 0 0 14 453 154 456 ?0 432 4
71 4 413 +15 132 0 432 22 81 1 456 721 434 453 472 0 436 0 473 15 471 436 0 95 4
53 474 14 132 268 475 ?174 476 131 4 413 +453 476 174 476 22 81 1 475 713 434 13
2 477 0 478 479 480 14 174 26 479 ?446 132 481 4 167 -0 0 446 132 22 14 476 439
 478 ?132 482 483 4 413 +132 482 132 482 22 81 1 478 712 434 476 484 0 485 475 4
86 14 482 453 485 ?476 487 488 4 413 +476 487 476 487 22 15 483 450 0 89 476 489
 17 89 0 483 490 490 87 92 206 0 205 -15 489 428 0 186 476 0 17 186 0 489 98 98
 93 491 182 0 0 +17 98 0 489 186 186 96 95 187 0 491 +17 491 0 471 95 95 96 186
 182 0 0 -17 95 0 471 491 491 93 98 187 0 186 -17 490 0 483 89 89 90 205 196 0 0
 -17 92 0 492 205 205 90 89 206 0 490 +16 206 449 493 ?92 222 196 197 0 0 1 17 2
05 0 492 92 92 87 490 196 0 0 +15 492 442 0 205 482 0 81 1 493 643 141 206 0 0 4
07 384 494 81 1 407 642 141 286 0 0 400 493 495 81 1 384 644 141 381 0 0 493 364
 496 84 32 494 1067ac9cacd3aa4b8d62f860844bb15c81 1 364 645 141 356 0 0 384 393
 497 84 32 496 2c89dd631c8a002f25001e652f5df1ac81 1 393 646 141 386 0 0 364 204
 498 84 32 497 ff39f77b424b7181e3195cb3e3e43c4a81 1 204 647 141 196 0 0 393 499
 500 84 32 498 e56a41ee498a0c27270d84a5a0742d7181 1 499 648 141 246 0 0 204 305
 501 84 32 500 242ed528f59422270aa44d38a905c7d916 246 477 499 ?80 262 236 237 0
 0 1 81 1 305 649 141 302 0 0 499 244 502 84 32 501 f8fc479ca28bbbd9a21b8ad55acf
3b3c81 1 244 650 141 236 0 0 305 195 503 84 32 502 8f8a94f1a62a7449e227da882ab53
e4f81 1 195 651 141 187 0 0 244 504 505 84 32 503 199ddafe0de78fd364539e5e695d0f
6181 1 504 652 141 326 0 0 195 225 506 84 32 505 5b83085f07f9f4583bc87da9fb68b12
016 326 533 504 ?56 342 316 317 0 0 1 81 1 225 653 141 222 0 0 504 23 507 84 32
 506 df44019597e08cfe9c195220fc931c9981 1 23 654 141 9 0 0 225 275 508 84 32 507
 d92973668e8532ffbfc1031b21acbc1881 1 275 655 141 267 0 0 23 355 509 84 32 508 f
a8ea81989c0fada0e478ad0a986d52d81 1 355 656 141 347 0 0 275 265 510 84 32 509 10
6617ea8aa42228b0c84bf562e76d9081 1 265 657 141 262 0 0 355 324 511 84 32 510 869
2a4a57cef8e9a94f2b76f9ad679e781 1 324 658 141 316 0 0 265 185 512 84 32 511 0985
8a805d40e9b9258dde02f650e3a781 1 185 659 141 182 0 0 324 284 513 84 32 512 e30a3
ac4be40964c47ec2302118656b081 1 284 660 141 276 0 0 185 472 514 84 32 513 bf9ff2
8794097a2dcdaa6ede8b0ad12d81 1 472 661 141 453 0 456 284 477 515 84 32 514 d647f
17cc362e2a625f933fe84b8fc1681 1 477 662 141 132 0 475 472 516 517 84 32 515 e29b
b898d5d6297d64c5d25859f2401a81 1 516 663 141 482 0 485 477 518 519 84 32 517 a74
087d658fbc0e31240be87d1b26f5681 1 485 711 434 482 516 0 520 478 521 81 1 518 664
 141 412 0 417 516 522 523 84 32 519 eb7bb31469dd71c322faa6e91ee51ff381 1 417 70
3 434 412 518 0 411 524 525 81 1 522 665 141 418 0 524 518 484 526 84 32 523 0ca
7704f1ab7c0f2076a18548e7e533814 418 551 524 ?527 412 420 4 413 +527 412 527 412
 22 81 1 524 704 434 418 522 0 417 528 529 81 1 484 666 141 476 0 478 522 530 53
1 84 32 526 768520269ca744395a8835f999ef30a681 1 530 667 141 409 0 411 484 532 5
33 84 32 531 d3ffa9cf01cf4eb3def7b1fe46394c1881 1 411 702 434 409 530 0 467 417
 534 81 1 532 668 141 535 0 536 530 537 538 84 32 533 70df57c758405bfa435c800387
c9ac6414 535 509 536 ?539 540 541 4 413 +539 540 539 540 22 81 1 536 707 434 535
 532 0 542 543 544 81 1 537 669 141 487 0 520 532 469 545 84 32 538 945e853eb570
5ec35d25651b1e1a7d9914 487 467 520 ?482 546 547 4 413 +482 546 482 546 22 81 1 5
20 710 434 487 537 0 548 485 549 81 1 469 670 141 15 0 467 537 550 551 84 32 545
 2dad7bc53c6dbbbd04e8219b849a8e9f81 1 550 671 141 527 0 528 469 552 553 84 32 55
1 eee2bd817537b96c4d5001cf465d7a5714 527 537 528 ?540 418 554 4 413 +540 418 540
 418 22 81 1 528 705 434 527 550 0 524 542 555 81 1 552 672 141 546 0 548 550 55
6 557 84 32 553 eaf49e603a97fb2c5432d6765c2d32bf14 546 481 548 ?487 539 558 4 41
3 +487 539 487 539 22 81 1 548 709 434 546 552 0 543 520 559 81 1 556 673 141 53
9 0 543 552 560 561 84 32 557 32a641a0e5f02c2991a44168d99cb4f414 539 495 543 ?54
6 535 562 4 413 +546 535 546 535 22 81 1 543 708 434 539 556 0 536 548 563 81 1
 560 674 141 540 0 542 556 0 564 84 32 561 2fc1a732d9a72f1ca4c28a7c57058d3714 54
0 523 542 ?535 527 565 4 413 +535 527 535 527 22 81 1 542 706 434 540 560 0 528
 536 566 84 32 564 85f7aaf4b6c921c6ebaf7ceed5127d4b83 3 566 .596063172350652 .66
6666666666667 .686259250782025 15 565 534 0 53 540 567 17 53 0 565 568 568 51 56
 326 0 325 -15 567 512 0 306 540 0 17 306 0 567 62 62 57 569 302 0 0 +17 62 0 56
7 306 306 60 59 307 0 569 +17 569 0 541 59 59 60 306 302 0 0 -15 541 520 0 59 53
5 570 17 59 0 541 569 569 57 62 307 0 306 -15 570 498 0 285 535 0 17 285 0 570 6
8 68 63 571 276 0 0 +17 68 0 570 285 285 66 65 286 0 571 +17 571 0 562 65 65 66
 285 276 0 0 -15 562 506 0 65 539 572 17 65 0 562 571 571 63 68 286 0 285 -16 28
6 505 407 ?68 302 276 277 0 0 1 15 572 484 0 266 539 0 17 266 0 572 74 74 69 573
 262 0 0 +17 74 0 572 266 266 72 71 267 0 573 +17 573 0 558 71 71 72 266 262 0 0
 -15 558 492 0 71 546 574 17 71 0 558 573 573 69 74 267 0 266 -15 574 470 0 245
 546 0 17 245 0 574 80 80 75 575 236 0 0 +17 80 0 574 245 245 78 77 246 0 575 +1
7 575 0 547 77 77 78 245 236 0 0 -15 547 478 0 77 487 576 17 77 0 547 575 575 75
 80 246 0 245 -15 576 456 0 226 487 0 17 226 0 576 86 86 81 577 222 0 0 +17 86 0
 576 226 226 84 83 227 0 577 +17 577 0 488 83 83 84 226 222 0 0 -15 488 464 0 83
 482 492 17 83 0 488 577 577 81 86 227 0 226 -17 568 0 565 53 53 54 325 316 0 0
 -17 56 0 578 325 325 54 53 326 0 568 +17 325 0 578 56 56 51 568 316 0 0 +15 578
 526 0 325 527 0 83 3 563 .596063172350652 .666666666666667 .686259250782025 83
 3 559 .596063172350652 .666666666666667 .686259250782025 83 3 555 .596063172350
652 .666666666666667 .686259250782025 15 554 548 0 47 527 578 17 47 0 554 579 57
9 45 50 347 0 346 -17 579 0 554 47 47 48 346 342 0 0 -17 50 0 421 346 346 48 47
 347 0 579 +17 346 0 421 50 50 45 579 342 0 0 +15 421 540 0 346 418 0 83 3 549 .
596063172350652 .666666666666667 .686259250782025 83 3 544 .596063172350652 .666
666666666667 .686259250782025 83 3 534 .596063172350652 .666666666666667 .686259
250782025 83 3 529 .596063172350652 .666666666666667 .686259250782025 83 3 525 .
596063172350652 .666666666666667 .686259250782025 83 3 521 .596063172350652 .666
666666666667 .686259250782025 84 32 495 f31320b8f13b26d3c62b1334b55b326283 3 486
 .596063172350652 .666666666666667 .686259250782025 81 1 479 714 434 174 580 0 4
75 448 581 14 446 6 448 ?442 174 582 4 583 +0 0 442 174 22 15 481 25 0 584 174 5
85 17 584 0 481 584 584 0 153 150 0 0 -15 585 27 0 156 174 0 17 156 0 585 156 15
6 0 586 122 0 0 +17 586 0 587 586 586 0 156 122 0 0 -15 587 20 0 586 442 0 17 15
3 0 582 153 153 0 584 150 0 0 +15 582 5 0 153 446 0 81 1 448 715 434 446 588 0 4
79 443 589 50 583 7 0 446 460 175 0 +0 0 .45 0 0 1 1 0 0 51 460 187 0 115 463 58
3 0 -0 0 0 0 0 -1 .04875 -1 0 0 50 175 23 0 442 583 167 0 +0 0 -.05 0 0 1 1 0 0
 81 1 588 50 141 446 0 448 580 148 590 83 3 589 .596063172350652 .66666666666666
7 .686259250782025 81 1 580 48 141 174 0 479 152 588 591 81 1 148 212 141 129 0
 0 588 143 592 84 32 590 38920c1928e3fd89d046d2ac7fc6fe5281 1 143 213 141 139 0
 0 148 121 593 84 32 592 051c1455aa31099ec80372ee65567a4081 1 121 214 141 113 0
 0 143 128 594 84 32 593 81603b0dd3148284bab335948c38bff581 1 128 215 141 117 0
 0 121 138 595 84 32 594 de582453255b2cad35c6e69935e2fbee84 32 595 322005914ed72
84c992fd84487cb370c81 1 152 47 141 150 0 0 155 580 596 84 32 591 a38519422f191bf
bd8c7c1d8cc5427e281 1 155 46 141 122 0 0 0 152 597 84 32 596 53e66e86bada25c55cc
56cc6532e199884 32 597 3006f198bfc7576ee99015dd27b83b6583 3 581 .596063172350652
 .666666666666667 .686259250782025 83 3 480 .596063172350652 .666666666666667 .6
86259250782025 15 474 183 0 144 453 0 17 144 0 474 144 144 0 598 139 0 0 +17 598
 0 454 598 598 0 144 139 0 0 -15 454 153 0 598 432 0 83 3 473 .596063172350652 .
666666666666667 .686259250782025 50 433 191 0 126 455 413 0 +.0446 0 0 0 0 1 1 0
 0 50 455 192 0 432 0 433 0 +.0446 0 .14275 0 0 1 1 0 0 17 101 0 468 599 599 99
 104 163 0 162 -17 599 0 468 101 101 102 162 154 0 0 -17 104 0 133 162 162 102 1
01 163 0 599 +17 162 0 133 104 104 99 599 154 0 0 +15 133 257 0 162 132 0 83 3 4
70 .596063172350652 .666666666666667 .686259250782025 83 3 461 .596063172350652
 .666666666666667 .686259250782025 83 3 457 .596063172350652 .666666666666667 .6
86259250782025 83 3 450 .596063172350652 .666666666666667 .686259250782025 15 44
7 60 0 149 442 587 17 149 0 447 149 149 0 600 129 0 0 +17 600 0 116 600 600 0 14
9 129 0 0 -15 116 137 0 600 115 0 83 3 437 .596063172350652 .666666666666667 .68
6259250782025 79 15 425 UGS/ObjectState84 32 408 c81e5f8da0044eb0ecf645fb68435fc
a141 380 382 380 380 378 134 369 0 0 0 0 0 0 +601 602 136 601 3 7 2 5 4 FFF1 603
 604 605 135 602 2 0 45 14 603 2.51932776532464 -.0199984594392033 2.09974206158
517 -.02001077844563175 1.25984872839028 -.01999475742625225 .00100573446073496
 -.0200021813396696 -1.259932771682134 -.0199965172150693 -2.09712443623071 -.02
00066722717252 -2.51933017693286 -.01999846179446965 127 5 604 4 1 1 1 4 128 5 6
05 0 .25 .5 .75 1 141 341 343 341 341 338 134 329 0 0 0 0 0 0 +606 607 136 606 3
 7 2 5 4 FFF1 608 609 610 135 607 2 0 45 14 608 2.51932776532464 -.0399984594392
033 2.09974206158517 -.04001077844563175 1.25984872839027 -.0399947574262522 .00
1005734460731464 -.04000218133966965 -1.25993277168214 -.03999651721506935 -2.09
7124436230715 -.04000667227172515 -2.51933017693286 -.0399984617944697 127 5 609
 4 1 1 1 4 128 5 610 0 .25 .5 .75 1 141 301 303 301 301 298 134 289 0 0 0 0 0 0
 +611 612 136 611 3 7 2 5 4 FFF1 613 614 615 135 612 2 0 45 14 613 2.51932776532
464 -.0599984594392033 2.09974206158517 -.0600107784456317 1.259848728390274 -.0
599947574262523 .00100573446073124 -.0600021813396696 -1.259932771682142 -.05999
65172150694 -2.097124436230715 -.0600066722717252 -2.51933017693286 -.0599984617
944697 127 5 614 4 1 1 1 4 128 5 615 0 .25 .5 .75 1 141 261 263 261 261 258 134
 249 0 0 0 0 0 0 +616 617 136 616 3 7 2 5 4 FFF1 618 619 620 135 617 2 0 45 14 6
18 2.51932776532464 -.0799984594392033 2.09974206158517 -.0800107784456318 1.259
84872839028 -.0799947574262522 .00100573446073496 -.0800021813396696 -1.25993277
1682134 -.0799965172150693 -2.09712443623071 -.0800066722717252 -2.5193301769328
6 -.0799984617944697 127 5 619 4 1 1 1 4 128 5 620 0 .25 .5 .75 1 141 221 223 22
1 221 218 134 209 0 0 0 0 0 0 +621 622 136 621 3 7 2 5 4 FFF1 623 624 625 135 62
2 2 0 45 14 623 2.51932776532464 -.0999984594392033 2.09974206158517 -.100010778
4456318 1.259848728390276 -.0999947574262522 .001005734460733032 -.1000021813396
696 -1.259932771682136 -.0999965172150693 -2.09712443623071 -.1000066722717252 -
2.51933017693286 -.0999984617944697 127 5 624 4 1 1 1 4 128 5 625 0 .25 .5 .75 1
 141 181 183 181 181 178 134 166 0 0 0 0 0 0 +626 627 136 626 3 8 2 6 6 FFF1 628
 629 630 135 627 2 0 45 16 628 2.51932776532464 .0100015405607967 2.309534913454
905 .00999538105758247 1.88984930543184 .01000206757182024 1.04999503227111 .009
99890002573373 .001021622911937936 .00999956190929518 -1.259937311239622 .010002
98471379788 -2.09712443623071 .00999332772827481 -2.51933017693286 .010001538205
53032 127 6 629 4 1 1 1 1 4 128 6 630 0 .125 .25 .5 .75 1 84 32 142 24dcc7054c0f
30e7ba734d43a7f50c3919 16 31 0 1 0 8 4 S0 134 20 0 0 0 0 0 0 +631 632 136 631 3
 7 2 5 4 FFF1 633 634 635 135 632 2 0 45 14 633 2.51932776532464 154056079670200
5e-21 2.09974206158517 -1077844563174972e-20 1.259848728390276 524257374777304e-
20 .001005734460737202 -2181339669601885e-21 -1.25993277168213 348278493067614e-
20 -2.097124436230705 -667227172519028e-20 -2.51933017693286 1538205530331185e-2
1 127 5 634 4 1 1 1 4 128 5 635 0 .25 .5 .75 1 141 18 6 18 18 5 74 4 CI16 index_
map_offset0 0 1 dCCZ20 14 5 0 0 560 636 12 456 2 0 0 0 0 0 0 0 0 0 0 0 0 0 0 0 8
1 2 636 636 637 1 0 12 0 0 638 639 81 1 12 700 640 1 636 2 0 0 641 80 1 640 642
 643 9000 0 0 0 0 3 5 0 0 0 FFTFFFFFFFFFFF1 82 255 1 641 -1 79 19 643 UG2/PMARK_
ATTRIBUTE80 2 637 644 645 8004 0 0 0 0 3 5 0 0 0 FFTFFFFFFFFFFF2 3 83 1 638 8852
 84 8 639 Kg/Cu M 79 16 645 SDL/TYSA_DENSITY80 1 11 646 647 9000 0 0 0 0 3 5 0 0
 0 FFTFFFFFFFFFFF1 82 1 13 129 79 24 647 UG2/BODY_COLOR_ATTRIBUTE1 0 
