**ABCDEFGHIJKLMNOPQRSTUVWXYZabcdefghijklmnopqrstuvwxyz**************************
**PARASOLID !"#$%&'()*+,-./:;<=>?@[\]^_`{|}~0123456789**************************
**PART1;
MC=x64/Windows NT;
MC_MODEL=genuineintel family 6 model 14 stepping 9, intel(r) core(tm) i7-7700 cpu @ 3.60ghz;
MC_ID=lemon;
OS=windows nt (x64);
OS_RELEASE=6.3 windows 10 pro (build 17134) ;
FRU=mdc_ugii_v7.0_djl_can_vrh;
APPL=unigraphics;
SITE=unknown;
USER=ranej;
FORMAT=text;
GUISE=transmit;
KEY=pisces_split2;
FILE=C:\Users\ranej\Downloads\pices\pisces_split2.x_t;
DATE=3-jul-2019;
**PART2;
SCH=SCH_3000280_30000;
USFLD_SIZE=0;
**PART3;
**END_OF_HEADER*****************************************************************
T51 : TRANSMIT FILE created by modeller version 300028023 SCH_3000280_30000_1300
6205 0 12 33 CCCCCCI4 mesh1006 0 I8 polyline1008 0 CCCCCCCDI5 owner1040 0 CCCCCC
I13 boundary_mesh1006 0 I17 boundary_polyline1008 0 CCCA16 index_map_offset0 0 1
 dA9 index_map82 0 A17 node_id_index_map82 0 A20 schema_embedding_map82 0 A5 chi
ld12 0 A14 lowest_node_id0 0 1 dZ1 744 2 3 0 0 0 0 0 0 1e3 1e-8 0 4 0 1 0 1 1 5
 6 7 8 0 0 9 10 11 0 0 0 0 0 0 81 255 1 2 744 12 1 13 0 0 0 14 70 11 CI9 list_ty
pe0 0 1 uI10 notransmit0 0 1 lCCCDCCDI12 finger_index0 0 1 dI12 finger_block1012
 0 CZ3 0 4 T1 0 0 8 20 1 15 15 13 255 5 30 0 1 0 16 0 0 17 0 51 255 6 608 0 1 18
 0 19 -.0446 0 .02275 0 0 -1 .005 -1 0 0 137 255 7 607 0 10 20 0 0 +6 21 0 ?29 2
55 8 602 0 11 22 0 .0486628019529398 .00291438506227108 .0227484594392033 19 8 C
CCCCCCA5 owner12 0 Z9 1 0 1 17 0 23 V0 16 255 10 605 24 ?25 0 26 7 0 0 1 18 255
 11 600 0 27 0 28 8 ?1 17 255 27 0 29 30 30 11 25 10 0 31 -18 28 597 0 25 11 32
 22 ?1 17 25 0 33 31 31 28 27 10 0 30 +18 32 586 0 34 28 35 36 ?1 29 22 599 0 28
 36 8 .0486628089812829 -.00291437526437603 .02274846179446965 29 36 588 0 32 37
 22 .0486628019529398 .00291438506227108 .0327484594392033 29 37 585 0 35 38 36
 .0486628089812829 -.00291437526437603 .03274846179446965 18 35 583 0 39 32 40 3
7 ?1 29 38 574 0 40 41 37 .0486628019529398 .00291438506227108 .0427484594392033
 18 40 572 0 42 35 43 38 ?1 29 41 571 0 43 44 38 .0486628089812829 -.00291437526
437603 .04274846179446965 18 43 569 0 45 40 46 41 ?1 29 44 560 0 46 47 41 .04866
28019529398 .00291438506227108 .0527484594392033 18 46 558 0 48 43 49 44 ?1 29 4
7 557 0 49 50 44 .0486628089812829 -.00291437526437603 .0527484617944697 18 49 5
55 0 51 46 52 47 ?1 29 50 546 0 52 53 47 .0486628019529398 .00291438506227108 .0
627484594392033 18 52 544 0 54 49 55 50 ?1 29 53 543 0 55 56 50 .048662808981282
9 -.00291437526437603 .0627484617944697 18 55 541 0 57 52 58 53 ?1 29 56 532 0 5
8 59 53 .0486628019529398 .00291438506227108 .0727484594392033 18 58 530 0 60 55
 61 56 ?1 29 59 529 0 61 62 56 .0486628089812829 -.00291437526437603 .0727484617
944697 18 61 527 0 63 58 64 59 ?1 29 62 518 0 64 65 59 .0486628019529398 .002914
38506227108 .0827484594392033 18 64 516 0 66 61 67 62 ?1 29 65 515 0 67 68 62 .0
486628089812829 -.00291437526437603 .0827484617944697 18 67 513 0 69 64 70 65 ?1
 29 68 504 0 70 71 65 .0486628019529398 .00291438506227108 .0927484594392033 18
 70 502 0 72 67 73 68 ?1 29 71 501 0 73 74 68 .0486628089812829 -.00291437526437
603 .0927484617944697 18 73 499 0 75 70 76 71 ?1 29 74 490 0 76 77 71 .048662801
9529398 .00291438506227108 .1027484594392032 18 76 488 0 78 73 79 74 ?1 29 77 48
7 0 79 80 74 .0486628089812829 -.00291437526437603 .1027484617944696 18 79 485 0
 81 76 82 77 ?1 29 80 476 0 82 83 77 .0486628019529398 .00291438506227108 .11274
84594392032 18 82 474 0 84 79 85 80 ?1 29 83 473 0 85 86 80 .0486628089812829 -.
00291437526437603 .1127484617944696 18 85 471 0 87 82 88 83 ?1 29 86 462 0 88 89
 83 .0486628019529398 .00291438506227108 .1227484594392032 18 88 460 0 90 85 91
 86 ?1 29 89 459 0 91 92 86 .0486628089812829 -.00291437526437603 .1227484617944
696 18 91 457 0 93 88 94 89 ?1 29 92 448 0 94 95 89 .0486628019529398 .002914385
06227108 .1327484594392032 18 94 446 0 96 91 97 92 ?1 29 95 445 0 97 98 92 .0486
628089812829 -.00291437526437603 .1327484617944696 18 97 443 0 99 94 100 95 ?1 2
9 98 270 0 100 101 95 .0486628019529398 .00291438506227108 .0127484594392033 18
 100 268 0 102 97 103 98 ?1 29 101 267 0 103 104 98 .0486628089812829 -.00291437
526437603 .01274846179446966 18 103 265 0 105 100 106 101 ?1 29 104 197 0 106 10
7 101 .0486628082959641 .00291437621975008 0 18 106 131 0 108 103 109 104 ?1 29
 107 198 0 109 0 104 .0486628082959642 -.0029143762197501 0 18 109 132 0 110 106
 0 107 ?1 17 110 0 111 112 112 109 113 114 0 115 -15 255 111 136 0 110 116 117 1
7 112 0 111 110 110 106 115 118 0 119 -17 113 0 120 121 121 106 110 114 0 112 +1
6 114 117 122 ?113 123 118 124 0 0 1 17 115 0 125 119 119 109 112 118 0 126 +15
 125 149 0 119 127 0 17 119 0 125 115 115 106 126 128 0 0 -16 118 119 129 ?115 1
14 130 131 0 0 1 17 126 0 132 108 108 109 119 128 0 121 +15 132 184 0 108 133 13
4 17 108 0 132 126 126 106 121 135 0 113 +16 128 129 136 ?126 135 0 137 0 0 1 17
 121 0 120 113 113 109 108 135 0 0 -15 120 141 0 121 138 0 16 135 125 139 ?108 1
40 128 141 0 0 1 81 1 139 217 142 135 0 0 136 143 144 16 140 123 145 ?146 130 13
5 147 0 0 1 31 255 141 195 0 135 147 124 0 -.0446 0 0 0 0 1 1 0 0 .005 31 147 19
6 0 140 0 141 0 +.0446 0 .14275 0 0 1 1 0 0 .005 31 124 194 0 114 141 148 0 -0 0
 0 0 0 1 1 0 0 .04875 31 148 193 0 130 124 149 0 +0 0 -.05 0 0 1 1 0 0 .04875 16
 130 113 150 ?151 118 140 148 0 0 1 31 149 4 0 152 148 153 0 +0 0 .55 0 0 1 1 0
 0 .076 16 152 2 154 ?155 156 123 149 0 0 1 31 153 24 0 123 149 131 0 +0 0 -.05
 0 0 1 1 0 0 .076 16 123 21 157 ?158 152 114 153 0 0 1 31 131 208 0 118 153 137
 0 -0 0 0 0 0 1 1 0 0 .04875 31 137 209 0 128 131 159 0 -.0446 0 0 0 0 1 1 0 0 .
005 137 159 271 0 156 137 160 0 +161 162 0 ?16 156 269 163 ?164 165 152 159 0 0
 1 137 160 275 0 165 159 166 0 +167 168 0 ?51 161 272 0 1 169 167 170 -.0446 0 .
02275 0 0 -1 .005 -1 0 0 134 255 162 0 0 0 0 0 0 +171 172 136 255 171 3 5 2 3 4
 FFF1 173 174 175 135 255 172 2 0 45 255 10 173 3.76385513024673 .01000153820553
032 3.55655217057036 .01000556954871526 3.14159706157788 .0099965195083747 2.726
78907980705 .010007631610239 2.51932776532464 .0100015405607967 127 255 3 174 4
 1 4 128 255 3 175 0 .5 1 51 169 29 0 176 177 161 0 -0 0 .55 0 0 -1 .076 -1 0 0
 51 167 276 0 1 161 178 179 -.0446 0 .02275 0 0 -1 .005 -1 0 0 141 255 170 159 1
70 170 161 51 178 450 0 1 167 180 181 -.0446 0 .02275 0 0 -1 .005 -1 0 0 141 179
 160 179 179 167 51 180 454 0 1 178 182 183 -.0446 0 .02275 0 0 -1 .005 -1 0 0 1
41 181 166 181 181 178 137 166 449 0 184 160 185 0 +178 186 0 ?16 184 447 187 ?1
88 189 165 166 0 0 1 137 185 453 0 189 166 190 0 +180 191 0 ?134 186 0 0 0 0 0 0
 +192 193 136 192 3 5 2 3 4 FFF1 194 195 196 135 193 2 0 45 10 194 3.76385513024
673 -.1099984617944696 3.55655217057036 -.1099944304512846 3.14159706157788 -.11
00034804916252 2.72678907980705 -.109992368389761 2.51932776532464 -.10999845943
92032 127 3 195 4 1 4 128 3 196 0 .5 1 16 189 451 197 ?99 198 184 185 0 0 1 137
 190 463 0 198 185 199 0 +182 200 0 ?134 191 0 0 0 0 0 0 +201 202 136 201 3 7 2
 5 4 FFF1 203 204 205 135 202 2 0 45 14 203 2.51932776532464 -.1099984594392032
 2.09974206158517 -.1100107784456318 1.259848728390274 -.1099947574262522 .00100
573446073124 -.1100021813396696 -1.259932771682142 -.1099965172150694 -2.0971244
36230715 -.1100066722717252 -2.51933017693286 -.1099984617944696 127 5 204 4 1 1
 1 4 128 5 205 0 .25 .5 .75 1 16 198 461 206 ?207 208 189 190 0 0 1 137 199 467
 0 208 190 209 0 +210 211 0 ?51 182 464 0 1 180 210 212 -.0446 0 .02275 0 0 -1 .
005 -1 0 0 134 200 0 0 0 0 0 0 +213 214 136 213 3 5 2 3 4 FFF1 215 216 217 135 2
14 2 0 45 10 215 3.76385513024673 -.0999984617944697 3.55655217057036 -.09999443
04512847 3.14159706157788 -.1000034804916252 2.72678907980705 -.099992368389761
 2.51932776532464 -.0999984594392033 127 3 216 4 1 4 128 3 217 0 .5 1 51 210 468
 0 1 182 218 219 -.0446 0 .02275 0 0 -1 .005 -1 0 0 141 212 190 212 212 182 51 2
18 478 0 1 210 220 221 -.0446 0 .02275 0 0 -1 .005 -1 0 0 141 219 199 219 219 21
0 51 220 482 0 1 218 222 223 -.0446 0 .02275 0 0 -1 .005 -1 0 0 141 221 209 221
 221 218 137 209 477 0 224 199 225 0 +218 226 0 ?16 224 475 227 ?228 229 208 209
 0 0 1 137 225 481 0 229 209 230 0 +220 231 0 ?134 226 0 0 0 0 0 0 +232 233 136
 232 3 5 2 3 4 FFF1 234 235 236 135 233 2 0 45 10 234 3.76385513024673 -.0899984
617944697 3.55655217057036 -.0899944304512847 3.14159706157788 -.090003480491625
3 2.72678907980705 -.089992368389761 2.51932776532464 -.0899984594392033 127 3 2
35 4 1 4 128 3 236 0 .5 1 16 229 479 237 ?87 238 224 225 0 0 1 137 230 491 0 238
 225 239 0 +222 240 0 ?134 231 0 0 0 0 0 0 +241 242 136 241 3 7 2 5 4 FFF1 243 2
44 245 135 242 2 0 45 14 243 2.51932776532464 -.0899984594392033 2.0997420615851
7 -.0900107784456317 1.259848728390274 -.0899947574262522 .00100573446073124 -.0
900021813396696 -1.259932771682142 -.0899965172150694 -2.097124436230715 -.09000
66722717252 -2.51933017693286 -.0899984617944697 127 5 244 4 1 1 1 4 128 5 245 0
 .25 .5 .75 1 16 238 489 246 ?247 248 229 230 0 0 1 137 239 495 0 248 230 249 0
 +250 251 0 ?51 222 492 0 1 220 250 252 -.0446 0 .02275 0 0 -1 .005 -1 0 0 134 2
40 0 0 0 0 0 0 +253 254 136 253 3 5 2 3 4 FFF1 255 256 257 135 254 2 0 45 10 255
 3.76385513024673 -.0799984617944697 3.55655217057036 -.0799944304512847 3.14159
706157788 -.0800034804916253 2.72678907980705 -.079992368389761 2.51932776532464
 -.0799984594392033 127 3 256 4 1 4 128 3 257 0 .5 1 51 250 496 0 1 222 258 259
 -.0446 0 .02275 0 0 -1 .005 -1 0 0 141 252 230 252 252 222 51 258 506 0 1 250 2
60 261 -.0446 0 .02275 0 0 -1 .005 -1 0 0 141 259 239 259 259 250 51 260 510 0 1
 258 262 263 -.0446 0 .02275 0 0 -1 .005 -1 0 0 141 261 249 261 261 258 137 249
 505 0 264 239 265 0 +258 266 0 ?16 264 503 267 ?268 269 248 249 0 0 1 137 265 5
09 0 269 249 270 0 +260 271 0 ?134 266 0 0 0 0 0 0 +272 273 136 272 3 5 2 3 4 FF
F1 274 275 276 135 273 2 0 45 10 274 3.76385513024673 -.0699984617944697 3.55655
217057036 -.0699944304512847 3.14159706157788 -.0700034804916253 2.7267890798070
5 -.069992368389761 2.51932776532464 -.0699984594392033 127 3 275 4 1 4 128 3 27
6 0 .5 1 16 269 507 277 ?75 278 264 265 0 0 1 137 270 519 0 278 265 279 0 +262 2
80 0 ?134 271 0 0 0 0 0 0 +281 282 136 281 3 7 2 5 4 FFF1 283 284 285 135 282 2
 0 45 14 283 2.51932776532464 -.0699984594392033 2.09974206158517 -.070010778445
6318 1.259848728390274 -.0699947574262523 .00100573446073124 -.0700021813396696
 -1.259932771682142 -.0699965172150694 -2.097124436230715 -.0700066722717252 -2.
51933017693286 -.0699984617944697 127 5 284 4 1 1 1 4 128 5 285 0 .25 .5 .75 1 1
6 278 517 286 ?287 288 269 270 0 0 1 137 279 523 0 288 270 289 0 +290 291 0 ?51
 262 520 0 1 260 290 292 -.0446 0 .02275 0 0 -1 .005 -1 0 0 134 280 0 0 0 0 0 0
 +293 294 136 293 3 5 2 3 4 FFF1 295 296 297 135 294 2 0 45 10 295 3.76385513024
673 -.0599984617944697 3.55655217057036 -.0599944304512847 3.14159706157788 -.06
00034804916252 2.72678907980705 -.059992368389761 2.51932776532464 -.05999845943
92033 127 3 296 4 1 4 128 3 297 0 .5 1 51 290 524 0 1 262 298 299 -.0446 0 .0227
5 0 0 -1 .005 -1 0 0 141 292 270 292 292 262 51 298 534 0 1 290 300 301 -.0446 0
 .02275 0 0 -1 .005 -1 0 0 141 299 279 299 299 290 51 300 538 0 1 298 302 303 -.
0446 0 .02275 0 0 -1 .005 -1 0 0 141 301 289 301 301 298 137 289 533 0 304 279 3
05 0 +298 306 0 ?16 304 531 307 ?308 309 288 289 0 0 1 137 305 537 0 309 289 310
 0 +300 311 0 ?134 306 0 0 0 0 0 0 +312 313 136 312 3 5 2 3 4 FFF1 314 315 316 1
35 313 2 0 45 10 314 3.76385513024673 -.0499984617944697 3.55655217057036 -.0499
944304512847 3.14159706157788 -.0500034804916253 2.72678907980705 -.049992368389
761 2.51932776532464 -.0499984594392033 127 3 315 4 1 4 128 3 316 0 .5 1 16 309
 535 317 ?63 318 304 305 0 0 1 137 310 547 0 318 305 319 0 +302 320 0 ?134 311 0
 0 0 0 0 0 +321 322 136 321 3 7 2 5 4 FFF1 323 324 325 135 322 2 0 45 14 323 2.5
1932776532464 -.0499984594392033 2.09974206158517 -.0500107784456318 1.259848728
390276 -.0499947574262522 .00100573446073756 -.0500021813396696 -1.2599327716821
3 -.0499965172150693 -2.097124436230705 -.0500066722717252 -2.51933017693286 -.0
499984617944697 127 5 324 4 1 1 1 4 128 5 325 0 .25 .5 .75 1 16 318 545 326 ?327
 328 309 310 0 0 1 137 319 551 0 328 310 329 0 +330 331 0 ?51 302 548 0 1 300 33
0 332 -.0446 0 .02275 0 0 -1 .005 -1 0 0 134 320 0 0 0 0 0 0 +333 334 136 333 3
 5 2 3 4 FFF1 335 336 337 135 334 2 0 45 10 335 3.76385513024673 -.0399984617944
697 3.55655217057036 -.03999443045128475 3.14159706157788 -.0400034804916253 2.7
2678907980705 -.039992368389761 2.51932776532464 -.0399984594392033 127 3 336 4
 1 4 128 3 337 0 .5 1 51 330 552 0 1 302 338 339 -.0446 0 .02275 0 0 -1 .005 -1
 0 0 141 332 310 332 332 302 51 338 562 0 1 330 340 341 -.0446 0 .02275 0 0 -1 .
005 -1 0 0 141 339 319 339 339 330 51 340 566 0 1 338 342 343 -.0446 0 .02275 0
 0 -1 .005 -1 0 0 141 341 329 341 341 338 137 329 561 0 344 319 345 0 +338 346 0
 ?16 344 559 347 ?348 349 328 329 0 0 1 137 345 565 0 349 329 350 0 +340 351 0 ?
134 346 0 0 0 0 0 0 +352 353 136 352 3 5 2 3 4 FFF1 354 355 356 135 353 2 0 45 1
0 354 3.76385513024673 -.02999846179446965 3.55655217057036 -.02999443045128475
 3.14159706157788 -.0300034804916253 2.72678907980705 -.029992368389761 2.519327
76532464 -.0299984594392033 127 3 355 4 1 4 128 3 356 0 .5 1 16 349 563 357 ?51
 358 344 345 0 0 1 137 350 575 0 358 345 359 0 +342 360 0 ?134 351 0 0 0 0 0 0 +
361 362 136 361 3 7 2 5 4 FFF1 363 364 365 135 362 2 0 45 14 363 2.5193277653246
4 -.0299984594392033 2.09974206158517 -.03001077844563175 1.259848728390274 -.02
999475742625225 .001005734460732046 -.0300021813396696 -1.259932771682134 -.0299
9651721506935 -2.09712443623071 -.0300066722717252 -2.51933017693286 -.029998461
79446965 127 5 364 4 1 1 1 4 128 5 365 0 .25 .5 .75 1 16 358 573 366 ?367 368 34
9 350 0 0 1 137 359 579 0 368 350 369 0 +370 371 0 ?51 342 576 0 1 340 370 372 -
.0446 0 .02275 0 0 -1 .005 -1 0 0 134 360 0 0 0 0 0 0 +373 374 136 373 3 5 2 3 4
 FFF1 375 376 377 135 374 2 0 45 10 375 3.76385513024673 -.01999846179446965 3.5
5655217057036 -.01999443045128475 3.14159706157788 -.0200034804916253 2.72678907
980705 -.019992368389761 2.51932776532464 -.0199984594392033 127 3 376 4 1 4 128
 3 377 0 .5 1 51 370 580 0 1 342 378 379 -.0446 0 .02275 0 0 -1 .005 -1 0 0 141
 372 350 372 372 342 51 378 590 0 1 370 380 381 -.0446 0 .02275 0 0 -1 .005 -1 0
 0 141 379 359 379 379 370 51 380 594 0 1 378 18 382 -.0446 0 .02275 0 0 -1 .005
 -1 0 0 141 381 369 381 381 378 137 369 589 0 383 359 384 0 +378 385 0 ?16 383 5
87 386 ?387 388 368 369 0 0 1 137 384 593 0 388 369 20 0 +380 389 0 ?134 385 0 0
 0 0 0 0 +390 391 136 390 3 5 2 3 4 FFF1 392 393 394 135 391 2 0 45 10 392 3.763
85513024673 -.00999846179446967 3.55655217057036 -.00999443045128472 3.141597061
57788 -.0100034804916253 2.72678907980705 -.00999236838976098 2.51932776532464 -
.00999845943920329 127 3 393 4 1 4 128 3 394 0 .5 1 16 388 591 395 ?39 26 383 38
4 0 0 1 137 20 603 0 26 384 7 0 +18 396 0 ?134 389 0 0 0 0 0 0 +397 398 136 397
 3 7 2 5 4 FFF1 399 400 401 135 398 2 0 45 14 399 2.51932776532464 -.00999845943
920329 2.09974206158517 -.01001077844563176 1.259848728390276 -.0099947574262522
2 .001005734460733794 -.0100021813396696 -1.259932771682136 -.00999651721506931
 -2.09712443623071 -.0100066722717252 -2.51933017693286 -.00999846179446967 127
 5 400 4 1 1 1 4 128 5 401 0 .25 .5 .75 1 16 26 601 402 ?31 10 388 20 0 0 1 51 1
8 604 0 1 380 6 403 -.0446 0 .02275 0 0 -1 .005 -1 0 0 134 396 0 0 0 0 0 0 +404
 405 136 404 3 5 2 3 4 FFF1 406 407 408 135 405 2 0 45 10 406 3.76385513024673 1
538205530331185e-21 3.55655217057036 556954871527154e-20 3.14159706157788 -34804
91625297915e-21 2.72678907980705 763161023901657e-20 2.51932776532464 1540560796
702005e-21 127 3 407 4 1 4 128 3 408 0 .5 1 141 403 20 403 403 18 81 1 402 657 1
42 26 0 0 317 409 410 17 31 0 33 25 25 11 30 26 0 0 +15 33 598 0 31 16 0 17 30 0
 29 27 27 28 31 26 0 0 -15 29 606 0 27 411 412 14 255 411 595 413 ?414 16 29 5 4
15 +414 16 414 16 23 15 412 584 0 387 411 0 17 387 0 412 39 39 32 416 383 0 0 +1
7 39 0 412 387 387 35 34 388 0 416 +17 416 0 417 34 34 35 387 383 0 0 -15 417 59
2 0 34 414 418 17 34 0 417 416 416 32 39 388 0 387 -14 414 581 419 ?420 411 417
 5 415 +420 411 420 411 23 15 418 570 0 367 414 0 17 367 0 418 45 45 40 421 358
 0 0 +17 45 0 418 367 367 43 42 368 0 421 +17 421 0 422 42 42 43 367 358 0 0 -15
 422 578 0 42 420 423 17 42 0 422 421 421 40 45 368 0 367 -16 368 577 424 ?45 38
3 358 359 0 0 1 81 1 424 654 142 368 0 0 347 237 425 80 255 1 142 426 427 9000 1
 1 1 1 1 1 1 1 0 FFFFTFTFFFFFFF3 81 1 347 653 142 344 0 0 163 424 428 81 1 237 6
55 142 229 0 0 424 317 429 84 255 32 425 93f6fda911d2f3151dd4e8b2db11647d81 1 31
7 656 142 309 0 0 237 402 430 84 32 429 f115c5a6deb78a36dce35b12dbd97a6784 32 43
0 562b96ceb9dbcf74481fa1f5e2a7bca781 1 163 302 142 156 0 0 143 347 431 84 32 428
 9614fd0be6b0e4347957f8bd47504bfa81 1 143 301 142 165 0 0 139 163 432 84 32 431
 ed39d4f222e80e620d44ad04a260599516 165 273 143 ?105 184 156 160 0 0 1 84 32 432
 ae645f70240ecfb355b6792ad72d3fb417 105 0 134 164 164 103 102 165 0 433 +15 134
 266 0 164 133 0 17 164 0 134 105 105 100 433 156 0 0 +17 102 0 434 433 433 100
 105 165 0 164 -17 433 0 434 102 102 103 164 156 0 0 -15 434 274 0 102 16 33 14
 16 609 435 ?411 0 434 5 415 +411 436 411 0 23 81 1 435 723 437 16 438 0 0 413 4
39 51 415 190 0 436 440 441 0 -.0446 0 .02275 0 0 -1 .005 -1 0 0 14 436 154 442
 ?0 443 444 5 415 +16 133 0 443 23 13 23 3 0 0 0 0 0 0 9 16 81 1 442 743 437 436
 445 0 446 0 447 14 443 150 446 ?436 127 448 5 449 -0 0 436 127 23 15 444 452 0
 96 436 450 14 133 277 451 ?176 452 132 5 415 +436 452 176 452 23 81 1 451 735 4
37 133 453 0 454 455 456 14 176 26 455 ?457 133 458 5 169 -0 0 457 133 23 14 452
 455 454 ?133 459 460 5 415 +133 459 133 459 23 81 1 454 734 437 452 461 0 462 4
51 463 14 459 469 462 ?452 464 465 5 415 +452 464 452 464 23 15 460 466 0 90 452
 466 17 90 0 460 467 467 88 93 208 0 207 -15 466 444 0 188 452 0 17 188 0 466 99
 99 94 468 184 0 0 +17 99 0 466 188 188 97 96 189 0 468 +17 468 0 444 96 96 97 1
88 184 0 0 -17 96 0 444 468 468 94 99 189 0 188 -17 467 0 460 90 90 91 207 198 0
 0 -17 93 0 469 207 207 91 90 208 0 467 +16 208 465 470 ?93 224 198 199 0 0 1 17
 207 0 469 93 93 88 467 198 0 0 +15 469 458 0 207 459 0 81 1 470 659 142 208 0 0
 409 386 471 81 1 409 658 142 288 0 0 402 470 472 81 1 386 660 142 383 0 0 470 3
66 473 84 32 471 1067ac9cacd3aa4b8d62f860844bb15c81 1 366 661 142 358 0 0 386 39
5 474 84 32 473 2c89dd631c8a002f25001e652f5df1ac81 1 395 662 142 388 0 0 366 206
 475 84 32 474 ff39f77b424b7181e3195cb3e3e43c4a81 1 206 663 142 198 0 0 395 476
 477 84 32 475 e56a41ee498a0c27270d84a5a0742d7181 1 476 664 142 248 0 0 206 307
 478 84 32 477 242ed528f59422270aa44d38a905c7d916 248 493 476 ?81 264 238 239 0
 0 1 81 1 307 665 142 304 0 0 476 246 479 84 32 478 f8fc479ca28bbbd9a21b8ad55acf
3b3c81 1 246 666 142 238 0 0 307 197 480 84 32 479 8f8a94f1a62a7449e227da882ab53
e4f81 1 197 667 142 189 0 0 246 481 482 84 32 480 199ddafe0de78fd364539e5e695d0f
6181 1 481 668 142 328 0 0 197 227 483 84 32 482 5b83085f07f9f4583bc87da9fb68b12
016 328 549 481 ?57 344 318 319 0 0 1 81 1 227 669 142 224 0 0 481 24 484 84 32
 483 df44019597e08cfe9c195220fc931c9981 1 24 670 142 10 0 0 227 277 485 84 32 48
4 d92973668e8532ffbfc1031b21acbc1881 1 277 671 142 269 0 0 24 357 486 84 32 485
 fa8ea81989c0fada0e478ad0a986d52d81 1 357 672 142 349 0 0 277 267 487 84 32 486
 106617ea8aa42228b0c84bf562e76d9081 1 267 673 142 264 0 0 357 326 488 84 32 487
 8692a4a57cef8e9a94f2b76f9ad679e781 1 326 674 142 318 0 0 267 187 489 84 32 488
 09858a805d40e9b9258dde02f650e3a781 1 187 675 142 184 0 0 326 286 490 84 32 489
 e30a3ac4be40964c47ec2302118656b081 1 286 676 142 278 0 0 187 491 492 84 32 490
 bf9ff28794097a2dcdaa6ede8b0ad12d81 1 491 677 142 138 0 493 286 494 495 84 32 49
2 d647f17cc362e2a625f933fe84b8fc1614 138 138 496 ?127 116 120 5 441 -0 0 127 116
 23 81 3 493 700 497 138 491 496 498 499 500 501 0 81 1 494 678 142 116 0 498 49
1 502 503 84 32 495 01d5ae4957b766ebcb1571ba6229ab6a14 116 133 504 ?138 505 111
 5 506 +0 0 138 505 23 81 3 498 699 497 116 494 504 0 493 507 508 0 81 1 502 679
 142 127 0 499 494 509 510 84 32 503 34bb454a32962d60ca1eb8a2a0dc441c14 127 146
 511 ?443 138 125 5 440 +0 0 443 138 23 81 3 499 701 497 127 502 511 493 512 513
 514 0 81 1 509 680 142 436 0 445 502 515 516 84 32 510 d06262f7140f529958b2b547
0fdf688981 3 445 707 497 436 509 442 453 517 518 519 0 81 1 515 681 142 443 0 51
2 509 520 521 84 32 516 e29bb898d5d6297d64c5d25859f2401a81 3 512 702 497 443 515
 446 499 522 523 524 0 81 1 520 682 142 176 0 522 515 525 526 84 32 521 6a5dc553
029d4b22c4dc7def6f946cf781 3 522 703 497 176 520 455 512 527 528 529 0 81 1 525
 683 142 505 0 530 520 531 532 84 32 526 51414883af0644a39bacf7656f9d552f14 505
 17 533 ?116 457 534 5 177 -0 0 116 457 23 81 3 530 705 497 505 525 533 527 453
 535 536 0 81 1 531 684 142 457 0 527 525 537 538 84 32 532 0aff74fd48e019f24ac1
e6c58bcb15d114 457 6 539 ?505 176 540 5 541 +0 0 505 176 23 81 3 527 704 497 457
 531 539 522 530 542 543 0 81 1 537 685 142 133 0 453 531 544 545 84 32 538 6a58
c1c025f442c7bb89085846bde84581 3 453 706 497 133 537 451 530 445 546 547 0 81 1
 544 686 142 459 0 548 537 549 550 84 32 545 a74087d658fbc0e31240be87d1b26f5681
 3 548 716 497 459 544 462 438 551 552 553 0 81 1 549 687 142 414 0 554 544 555
 556 84 32 550 eb7bb31469dd71c322faa6e91ee51ff381 3 554 711 497 414 549 419 557
 558 559 560 0 81 1 555 688 142 420 0 517 549 561 562 84 32 556 0ca7704f1ab7c0f2
076a18548e7e533814 420 567 563 ?564 414 422 5 415 +564 414 564 414 23 81 3 517 7
08 497 420 555 563 445 565 566 567 0 81 1 561 689 142 452 0 461 555 568 569 84 3
2 562 768520269ca744395a8835f999ef30a681 3 461 718 497 452 561 454 551 570 571 5
72 0 81 1 568 690 142 411 0 558 561 573 574 84 32 569 d3ffa9cf01cf4eb3def7b1fe46
394c1881 3 558 712 497 411 568 413 554 575 576 577 0 81 1 573 691 142 578 0 551
 568 579 580 84 32 574 70df57c758405bfa435c800387c9ac6414 578 525 581 ?582 583 5
84 5 415 +582 583 582 583 23 81 3 551 717 497 578 573 581 548 461 585 586 0 81 1
 579 692 142 464 0 565 573 587 588 84 32 580 945e853eb5705ec35d25651b1e1a7d9914
 464 483 589 ?459 590 591 5 415 +459 590 459 590 23 81 3 565 709 497 464 579 589
 517 557 592 593 0 81 1 587 693 142 16 0 438 579 594 595 84 32 588 2dad7bc53c6db
bbd04e8219b849a8e9f81 3 438 715 497 16 587 435 596 548 597 598 0 81 1 594 694 14
2 564 0 570 587 599 600 84 32 595 eee2bd817537b96c4d5001cf465d7a5714 564 553 601
 ?583 420 602 5 415 +583 420 583 420 23 81 3 570 719 497 564 594 601 461 0 603 6
04 0 81 1 599 695 142 590 0 575 594 605 606 84 32 600 eaf49e603a97fb2c5432d6765c
2d32bf14 590 497 607 ?464 582 608 5 415 +464 582 464 582 23 81 3 575 713 497 590
 599 607 558 596 609 610 0 81 1 605 696 142 582 0 596 599 611 612 84 32 606 32a6
41a0e5f02c2991a44168d99cb4f414 582 511 613 ?590 578 614 5 415 +590 578 590 578 2
3 81 3 596 714 497 582 605 613 575 438 615 616 0 81 1 611 697 142 583 0 557 605
 0 617 84 32 612 2fc1a732d9a72f1ca4c28a7c57058d3714 583 539 618 ?578 564 619 5 4
15 +578 564 578 564 23 81 3 557 710 497 583 611 618 565 554 620 621 0 84 32 617
 85f7aaf4b6c921c6ebaf7ceed5127d4b80 3 497 622 623 9000 0 0 0 0 3 6 0 0 0 FFFFTFT
TFFFFFF1 1 3 81 1 618 728 437 583 557 0 601 581 624 82 255 1 620 1 82 1 621 1233
 80 1 437 0 625 8001 0 0 0 0 3 5 0 0 0 FFFFTFTFFFFFFF2 81 1 601 727 437 564 570
 0 563 618 626 81 1 581 729 437 578 551 0 618 613 627 83 255 3 624 .596063172350
652 .666666666666667 .686259250782025 81 1 613 730 437 582 596 0 581 607 628 83
 3 627 .596063172350652 .666666666666667 .686259250782025 81 1 607 731 437 590 5
75 0 613 589 629 83 3 628 .596063172350652 .666666666666667 .686259250782025 81
 1 589 732 437 464 565 0 607 462 630 83 3 629 .596063172350652 .666666666666667
 .686259250782025 81 1 462 733 437 459 548 0 589 454 631 83 3 630 .5960631723506
52 .666666666666667 .686259250782025 83 3 631 .596063172350652 .666666666666667
 .686259250782025 81 1 563 726 437 420 517 0 419 601 632 83 3 626 .5960631723506
52 .666666666666667 .686259250782025 81 1 419 725 437 414 554 0 413 563 633 83 3
 632 .596063172350652 .666666666666667 .686259250782025 81 1 413 724 437 411 558
 0 435 419 634 83 3 633 .596063172350652 .666666666666667 .686259250782025 83 3
 634 .596063172350652 .666666666666667 .686259250782025 79 255 15 625 SDL/TYSA_C
OLOUR79 27 623 MONIKER/MONIKER_DATA_ATTRIB15 619 550 0 54 583 635 17 54 0 619 63
6 636 52 57 328 0 327 -15 635 528 0 308 583 0 17 308 0 635 63 63 58 637 304 0 0
 +17 63 0 635 308 308 61 60 309 0 637 +17 637 0 584 60 60 61 308 304 0 0 -15 584
 536 0 60 578 638 17 60 0 584 637 637 58 63 309 0 308 -15 638 514 0 287 578 0 17
 287 0 638 69 69 64 639 278 0 0 +17 69 0 638 287 287 67 66 288 0 639 +17 639 0 6
14 66 66 67 287 278 0 0 -15 614 522 0 66 582 640 17 66 0 614 639 639 64 69 288 0
 287 -16 288 521 409 ?69 304 278 279 0 0 1 15 640 500 0 268 582 0 17 268 0 640 7
5 75 70 641 264 0 0 +17 75 0 640 268 268 73 72 269 0 641 +17 641 0 608 72 72 73
 268 264 0 0 -15 608 508 0 72 590 642 17 72 0 608 641 641 70 75 269 0 268 -15 64
2 486 0 247 590 0 17 247 0 642 81 81 76 643 238 0 0 +17 81 0 642 247 247 79 78 2
48 0 643 +17 643 0 591 78 78 79 247 238 0 0 -15 591 494 0 78 464 644 17 78 0 591
 643 643 76 81 248 0 247 -15 644 472 0 228 464 0 17 228 0 644 87 87 82 645 224 0
 0 +17 87 0 644 228 228 85 84 229 0 645 +17 645 0 465 84 84 85 228 224 0 0 -15 4
65 480 0 84 459 469 17 84 0 465 645 645 82 87 229 0 228 -17 636 0 619 54 54 55 3
27 318 0 0 -17 57 0 646 327 327 55 54 328 0 636 +17 327 0 646 57 57 52 636 318 0
 0 +15 646 542 0 327 564 0 82 1 615 1 82 1 616 1237 82 1 609 1 82 1 610 1236 82
 1 603 1 82 1 604 1242 15 602 564 0 48 564 646 17 48 0 602 647 647 46 51 349 0 3
48 -17 647 0 602 48 48 49 348 344 0 0 -17 51 0 423 348 348 49 48 349 0 647 +17 3
48 0 423 51 51 46 647 344 0 0 +15 423 556 0 348 420 0 82 1 597 1 82 1 598 1238 8
2 1 592 1 82 1 593 1232 82 1 585 1 82 1 586 1240 82 1 576 1 82 1 577 1235 82 1 5
71 1 82 1 572 1241 82 1 566 1 82 1 567 1231 82 1 559 1 82 1 560 1234 82 1 552 1
 82 1 553 1239 82 1 546 1 82 1 547 1181 81 1 539 737 437 457 527 0 455 533 648 8
2 1 542 0 82 1 543 857 81 1 455 736 437 176 522 0 451 539 649 81 1 533 738 437 5
05 530 0 539 504 650 83 3 648 .596063172350652 .666666666666667 .686259250782025
 81 1 504 739 437 116 498 0 533 496 651 83 3 650 .596063172350652 .6666666666666
67 .686259250782025 81 1 496 740 437 138 493 0 504 511 652 83 3 651 .59606317235
0652 .666666666666667 .686259250782025 81 1 511 741 437 127 499 0 496 446 653 83
 3 652 .596063172350652 .666666666666667 .686259250782025 81 1 446 742 437 443 5
12 0 511 442 654 83 3 653 .596063172350652 .666666666666667 .686259250782025 83
 3 654 .596063172350652 .666666666666667 .686259250782025 83 3 649 .596063172350
652 .666666666666667 .686259250782025 15 540 5 0 155 457 0 50 255 541 7 0 457 50
6 177 0 +0 0 .55 0 0 1 1 0 0 51 506 187 0 116 441 541 0 -0 0 0 0 0 -1 .04875 -1
 0 0 50 177 23 0 505 541 169 0 +0 0 -.05 0 0 1 1 0 0 50 441 189 0 138 415 506 0
 +0 0 0 0 0 1 1 0 0 17 155 0 540 155 155 0 655 152 0 0 +17 655 0 458 655 655 0 1
55 152 0 0 -15 458 25 0 655 176 656 15 656 27 0 158 176 0 17 158 0 656 158 158 0
 657 123 0 0 +17 657 0 658 657 657 0 158 123 0 0 -15 658 20 0 657 505 0 82 1 535
 0 82 1 536 858 15 534 60 0 151 505 658 17 151 0 534 151 151 0 659 130 0 0 +17 6
59 0 117 659 659 0 151 130 0 0 -15 117 137 0 659 116 0 82 1 528 0 82 1 529 856 8
2 1 523 0 82 1 524 316 82 1 518 1 82 1 519 1230 82 1 513 0 82 1 514 65 50 440 19
1 0 127 449 415 0 +.0446 0 0 0 0 1 1 0 0 50 449 192 0 443 0 440 0 +.0446 0 .1427
5 0 0 1 1 0 0 82 1 507 0 82 1 508 33 82 1 500 0 82 1 501 34 84 32 472 f31320b8f1
3b26d3c62b1334b55b326283 3 463 .596063172350652 .666666666666667 .68625925078202
5 83 3 456 .596063172350652 .666666666666667 .686259250782025 15 450 183 0 146 4
36 0 17 146 0 450 146 146 0 660 140 0 0 +17 660 0 448 660 660 0 146 140 0 0 -15
 448 153 0 660 443 0 83 3 447 .596063172350652 .666666666666667 .686259250782025
 83 3 439 .596063172350652 .666666666666667 .686259250782025 79 15 427 UGS/Objec
tState84 32 410 c81e5f8da0044eb0ecf645fb68435fca141 382 384 382 382 380 134 371
 0 0 0 0 0 0 +661 662 136 661 3 7 2 5 4 FFF1 663 664 665 135 662 2 0 45 14 663 2
.51932776532464 -.0199984594392033 2.09974206158517 -.02001077844563175 1.259848
72839028 -.01999475742625225 .00100573446073496 -.0200021813396696 -1.2599327716
82134 -.0199965172150693 -2.09712443623071 -.0200066722717252 -2.51933017693286
 -.01999846179446965 127 5 664 4 1 1 1 4 128 5 665 0 .25 .5 .75 1 141 343 345 34
3 343 340 134 331 0 0 0 0 0 0 +666 667 136 666 3 7 2 5 4 FFF1 668 669 670 135 66
7 2 0 45 14 668 2.51932776532464 -.0399984594392033 2.09974206158517 -.040010778
44563175 1.25984872839027 -.0399947574262522 .001005734460731464 -.0400021813396
6965 -1.25993277168214 -.03999651721506935 -2.097124436230715 -.0400066722717251
5 -2.51933017693286 -.0399984617944697 127 5 669 4 1 1 1 4 128 5 670 0 .25 .5 .7
5 1 141 303 305 303 303 300 134 291 0 0 0 0 0 0 +671 672 136 671 3 7 2 5 4 FFF1
 673 674 675 135 672 2 0 45 14 673 2.51932776532464 -.0599984594392033 2.0997420
6158517 -.0600107784456317 1.259848728390274 -.0599947574262523 .001005734460731
24 -.0600021813396696 -1.259932771682142 -.0599965172150694 -2.097124436230715 -
.0600066722717252 -2.51933017693286 -.0599984617944697 127 5 674 4 1 1 1 4 128 5
 675 0 .25 .5 .75 1 141 263 265 263 263 260 134 251 0 0 0 0 0 0 +676 677 136 676
 3 7 2 5 4 FFF1 678 679 680 135 677 2 0 45 14 678 2.51932776532464 -.07999845943
92033 2.09974206158517 -.0800107784456318 1.25984872839028 -.0799947574262522 .0
0100573446073496 -.0800021813396696 -1.259932771682134 -.0799965172150693 -2.097
12443623071 -.0800066722717252 -2.51933017693286 -.0799984617944697 127 5 679 4
 1 1 1 4 128 5 680 0 .25 .5 .75 1 141 223 225 223 223 220 134 211 0 0 0 0 0 0 +6
81 682 136 681 3 7 2 5 4 FFF1 683 684 685 135 682 2 0 45 14 683 2.51932776532464
 -.0999984594392033 2.09974206158517 -.1000107784456318 1.259848728390276 -.0999
947574262522 .001005734460733032 -.1000021813396696 -1.259932771682136 -.0999965
172150693 -2.09712443623071 -.1000066722717252 -2.51933017693286 -.0999984617944
697 127 5 684 4 1 1 1 4 128 5 685 0 .25 .5 .75 1 141 183 185 183 183 180 134 168
 0 0 0 0 0 0 +686 687 136 686 3 8 2 6 6 FFF1 688 689 690 135 687 2 0 45 16 688 2
.51932776532464 .0100015405607967 2.309534913454905 .00999538105758247 1.8898493
0543184 .01000206757182024 1.04999503227111 .00999890002573373 .0010216229119379
36 .00999956190929518 -1.259937311239622 .01000298471379788 -2.09712443623071 .0
0999332772827481 -2.51933017693286 .01000153820553032 127 6 689 4 1 1 1 1 4 128
 6 690 0 .125 .25 .5 .75 1 81 1 157 46 142 123 0 0 0 154 691 81 1 154 47 142 152
 0 0 157 150 692 84 32 691 c2c7d12304edf81f1bad9ce85d57767181 1 150 212 142 130
 0 0 154 145 693 84 32 692 975ef981e44b4f0060a467e9607f097a81 1 145 213 142 140
 0 0 150 122 694 84 32 693 051c1455aa31099ec80372ee65567a4081 1 122 214 142 114
 0 0 145 129 695 84 32 694 81603b0dd3148284bab335948c38bff581 1 129 215 142 118
 0 0 122 136 696 84 32 695 de582453255b2cad35c6e69935e2fbee81 1 136 216 142 128
 0 0 129 139 697 84 32 696 322005914ed7284c992fd84487cb370c84 32 697 6f18fc06cf1
fc0b03c470e0152cbbb3184 32 144 24dcc7054c0f30e7ba734d43a7f50c3919 17 31 0 1 0 9
 5 S0 134 21 0 0 0 0 0 0 +698 699 136 698 3 7 2 5 4 FFF1 700 701 702 135 699 2 0
 45 14 700 2.51932776532464 1540560796702005e-21 2.09974206158517 -1077844563174
972e-20 1.259848728390276 524257374777304e-20 .001005734460737202 -2181339669601
885e-21 -1.25993277168213 348278493067614e-20 -2.097124436230705 -66722717251902
8e-20 -2.51933017693286 1538205530331185e-21 127 5 701 4 1 1 1 4 128 5 702 0 .25
 .5 .75 1 141 19 7 19 19 6 74 4 CI16 index_map_offset0 0 1 dCCZ20 15 8 0 0 611 7
03 704 570 705 13 442 2 0 0 0 0 0 0 0 0 0 0 0 0 81 2 703 652 706 1 0 704 0 0 707
 708 81 1 704 698 709 1 703 710 0 0 711 81 3 705 721 712 1 710 13 710 0 713 714
 715 81 2 13 722 716 1 705 2 0 0 717 0 80 2 716 712 718 9000 2 2 2 2 3 6 0 0 0 F
FTFFFFFFFFFFF2 3 83 1 717 15113 79 22 718 MONIKER/BODY_ID_ATTRIB80 3 712 497 719
 9000 0 0 0 0 3 6 0 0 0 FFTFFFFFFFFFFF3 3 1 81 3 710 720 712 1 704 705 0 705 720
 721 722 84 38 713 {cfd5e83f-e83f-40c0-a272-bfa62fdee400}84 17 714 NX 12.0.1.7-r
anej82 1 715 1 84 38 720 {5f0346a7-46a7-4b16-b77b-1e104b216a08}84 17 721 NX 12.0
.1.7-ranej82 1 722 0 79 25 719 MONIKER/GUID_TABLE_ATTRIB80 1 709 723 724 9000 0
 0 0 0 3 5 0 0 0 FFTFFFFFFFFFFF1 82 1 711 8 79 7 724 body_id80 2 706 725 726 800
4 0 0 0 0 3 5 0 0 0 FFTFFFFFFFFFFF2 3 83 1 707 8852 84 8 708 Kg/Cu M 79 16 726 S
DL/TYSA_DENSITY80 1 12 727 728 9000 0 0 0 0 3 5 0 0 0 FFTFFFFFFFFFFF1 82 1 14 12
9 79 24 728 UG2/BODY_COLOR_ATTRIBUTE1 0 
